<svg xmlns="http://www.w3.org/2000/svg" viewBox="0 0 500 487.65"><defs><style>.a{fill:#89181a;fill-rule:evenodd;}</style></defs><title>Asset 1</title><path class="a" d="M250,0C111.94,0,0,111.93,0,250,0,360.46,71.63,454.16,171,487.22c12.5,2.3,17.06-5.42,17.06-12.05,0-5.93-.22-21.65-.34-42.52-69.54,15.11-84.21-33.51-84.21-33.51-11.37-28.88-27.76-36.57-27.76-36.57-22.7-15.51,1.72-15.2,1.72-15.2,25.09,1.77,38.29,25.77,38.29,25.77,22.3,38.2,58.51,27.17,72.76,20.77,2.27-16.16,8.73-27.17,15.87-33.42C148.86,354.18,90.5,332.73,90.5,236.93c0-27.29,9.74-49.61,25.73-67.08-2.57-6.33-11.15-31.75,2.45-66.17,0,0,21-6.72,68.75,25.63a237.08,237.08,0,0,1,125.17,0c47.73-32.35,68.68-25.63,68.68-25.63,13.64,34.42,5.06,59.84,2.49,66.17,16,17.47,25.7,39.79,25.7,67.08,0,96-58.45,117.17-114.15,123.36,9,7.72,17,23,17,46.3,0,33.42-.31,60.39-.31,68.58,0,6.69,4.5,14.47,17.19,12C428.43,454.07,500,360.43,500,250,500,111.93,388.06,0,250,0Z"/></svg>