<svg xmlns="http://www.w3.org/2000/svg" viewBox="0 0 500 499.99"><defs><style>.a{fill:#89181a;}</style></defs><title>Asset 2</title><path class="a" d="M463.09,0H36.91A36.9,36.9,0,0,0,0,36.91V463.08A36.91,36.91,0,0,0,36.91,500H463.09A36.91,36.91,0,0,0,500,463.08V36.91A36.9,36.9,0,0,0,463.09,0ZM149,426H73.86V187.15H149ZM111.44,154.07c-23.93,0-43.34-18.22-43.34-43.15s19.41-43.16,43.34-43.16S154.78,86,154.78,110.92,135.37,154.07,111.44,154.07Zm314.7,272.06H351V295.7c0-38.48-16.36-50.34-37.46-50.34-22.3,0-44.17,16.78-44.17,51.3V426.13H194.18V187.34h72.29v33.08h1c7.27-14.7,32.66-39.8,71.44-39.8,41.95,0,87.27,24.88,87.27,97.82Z"/></svg>